<svg id="Layer_1" enable-background="new 0 0 512 512" height="512" viewBox="0 0 512 512" width="512" xmlns="http://www.w3.org/2000/svg"><g><g><g><path d="m160 144v-96c-88.366 0-160 71.634-160 160v96c0 88.365 71.634 160 160 160v-96c-35.346 0-64-28.654-64-64v-96c0-35.346 28.654-64 64-64z" fill="#289bc3"/></g><g><path d="m176 16h48v160h-48c-44.183 0-80-35.817-80-80 0-44.183 35.817-80 80-80z" fill="#289bc3"/></g><g><path d="m96 96c0-44.183 35.817-80 80-80h48v80z" fill="#00d2d2"/></g><g><circle cx="224" cy="96" fill="#289bc3" r="80"/></g><g><circle cx="224" cy="96" fill="#d7e6f0" r="64"/></g><g><circle cx="224" cy="96" fill="#a5c3dc" r="16"/></g><g><circle cx="224" cy="56" fill="#a5c3dc" r="16"/></g><g><circle cx="224" cy="136" fill="#a5c3dc" r="16"/></g><g><circle cx="189.359" cy="76" fill="#a5c3dc" r="16"/></g><g><circle cx="258.641" cy="116" fill="#a5c3dc" r="16"/></g><g><circle cx="189.359" cy="116" fill="#a5c3dc" r="16"/></g><g><circle cx="258.641" cy="76" fill="#a5c3dc" r="16"/></g><g><path d="m176 336h48v160h-48c-44.183 0-80-35.817-80-80 0-44.183 35.817-80 80-80z" fill="#289bc3"/></g><g><path d="m96 416c0-44.183 35.817-80 80-80h48v80z" fill="#00d2d2"/></g><g><circle cx="224" cy="416" fill="#289bc3" r="80"/></g><g><circle cx="224" cy="416" fill="#d7e6f0" r="64"/></g><g><circle cx="224" cy="416" fill="#a5c3dc" r="16"/></g><g><circle cx="224" cy="376" fill="#a5c3dc" r="16"/></g><g><circle cx="224" cy="456" fill="#a5c3dc" r="16"/></g><g><circle cx="189.359" cy="396" fill="#a5c3dc" r="16"/></g><g><circle cx="258.641" cy="436" fill="#a5c3dc" r="16"/></g><g><circle cx="189.359" cy="436" fill="#a5c3dc" r="16"/></g><g><circle cx="258.641" cy="396" fill="#a5c3dc" r="16"/></g></g><g><path d="m384 128c-70.544 0-127.755 57.069-127.994 127.557h-.006v96.443l-18.343 18.343c-5.04 5.04-1.47 13.657 5.657 13.657h140.686c70.692 0 128-57.308 128-128s-57.308-128-128-128z" fill="#ff6e91"/></g><g><circle cx="384" cy="256" fill="#e64178" r="104"/></g><g fill="#d7e6f0"><path d="m346.667 264c17.645 0 32-14.355 32-32s-14.355-32-32-32-32 14.355-32 32c0 4.418 3.582 8 8 8s8-3.582 8-8c0-8.823 7.178-16 16-16s16 7.177 16 16-7.178 16-16 16c-17.645 0-32 14.355-32 32v24c0 4.418 3.582 8 8 8h48c4.418 0 8-3.582 8-8s-3.582-8-8-8h-40v-16c0-8.823 7.177-16 16-16z"/><path d="m450.667 264v-56c0-4.418-3.582-8-8-8s-8 3.582-8 8v56h-16c-4.411 0-8-3.589-8-8v-48c0-4.418-3.582-8-8-8s-8 3.582-8 8v48c0 13.234 10.767 24 24 24h16v24c0 4.418 3.582 8 8 8s8-3.582 8-8v-24c4.418 0 8-3.582 8-8s-3.582-8-8-8z"/></g></g></svg>