<svg id="Layer_1" enable-background="new 0 0 128 128" height="512" viewBox="0 0 128 128" width="512" xmlns="http://www.w3.org/2000/svg"><g><g><path d="m110 21.01h-88c-3.309 0-6 2.691-6 6v77.98c0 3.309 2.691 6 6 6h88c3.309 0 6-2.691 6-6v-77.98c0-3.309-2.691-6-6-6z" fill="#e6e7e8"/></g><g><g><g><g><g><path d="m111 23.01v10.78h-98v-10.78c0-2.76 2.24-5 5-5h88c2.77 0 5 2.24 5 5z" fill="#0089ef"/></g><g><path d="m103.041 23.289c-1.287 0-2.33 1.043-2.33 2.33s1.043 2.33 2.33 2.33 2.33-1.043 2.33-2.33-1.044-2.33-2.33-2.33z" fill="#fa759e"/><path d="m93.565 23.289c-1.287 0-2.33 1.043-2.33 2.33s1.043 2.33 2.33 2.33 2.33-1.043 2.33-2.33-1.043-2.33-2.33-2.33z" fill="#ffd7e5"/><path d="m84.089 23.289c-1.287 0-2.33 1.043-2.33 2.33s1.043 2.33 2.33 2.33 2.33-1.043 2.33-2.33-1.044-2.33-2.33-2.33z" fill="#d4fbff"/></g><g><path d="m106 18.01h-88c-2.76 0-5 2.24-5 5v3c0-2.76 2.24-5 5-5h88c2.77 0 5 2.24 5 5v-3c0-2.76-2.23-5-5-5z" fill="#fff"/></g><path d="m13 33.79v67.2c0 2.761 2.239 5 5 5h88c2.761 0 5-2.239 5-5v-67.2z" fill="#d4fbff"/></g><path d="m100.326 43.103h-76.652c-1.105 0-2 .895-2 2v10.066c0 1.105.895 2 2 2h76.652c1.105 0 2-.895 2-2v-10.066c0-1.105-.896-2-2-2z" fill="#fa759e"/><g fill="#3a2c60"><path d="m106 17.01h-37.437c-.552 0-1 .448-1 1s.448 1 1 1h37.437c2.206 0 4 1.794 4 4v9.78h-96v-9.78c0-2.206 1.794-4 4-4h36.742c.552 0 1-.448 1-1s-.448-1-1-1h-36.742c-3.309 0-6 2.691-6 6v77.98c0 3.309 2.691 6 6 6h88c3.309 0 6-2.691 6-6v-77.98c0-3.309-2.691-6-6-6zm4 83.98c0 2.206-1.794 4-4 4h-88c-2.206 0-4-1.794-4-4v-66.2h96z"/><path d="m58.742 19.01h5.821c.552 0 1-.448 1-1s-.448-1-1-1h-5.821c-.552 0-1 .448-1 1s.448 1 1 1z"/><path d="m23.421 95.072h77.158c.552 0 1-.448 1-1s-.448-1-1-1h-77.158c-.552 0-1 .448-1 1s.448 1 1 1z"/><path d="m23.421 86.474h77.158c.552 0 1-.448 1-1s-.448-1-1-1h-77.158c-.552 0-1 .448-1 1s.448 1 1 1z"/></g></g></g><g><g><path d="m28.345 77.564h-4.104c-.593 0-1.016-.133-1.269-.398s-.38-.688-.38-1.269v-10.097c0-.592.129-1.018.389-1.278.259-.26.679-.389 1.26-.389h4.352c.642 0 1.197.04 1.667.119.47.08.892.232 1.264.458.318.189.599.429.843.719.244.291.43.611.559.962.128.351.192.722.192 1.113 0 1.344-.672 2.327-2.016 2.95 1.765.562 2.648 1.655 2.648 3.28 0 .751-.192 1.428-.577 2.029s-.904 1.046-1.558 1.333c-.409.171-.879.292-1.411.362-.531.071-1.15.106-1.859.106zm-3.033-11.388v3.472h2.492c.678 0 1.202-.064 1.571-.192s.652-.373.847-.733c.153-.257.229-.543.229-.861 0-.678-.241-1.128-.724-1.352-.482-.223-1.219-.334-2.208-.334zm2.832 5.424h-2.831v3.921h2.923c1.838 0 2.757-.663 2.757-1.988 0-.678-.238-1.169-.714-1.475-.477-.305-1.189-.458-2.135-.458z" fill="#0089ef"/></g><g><path d="m44.955 66.231h-6.129v3.298h5.644c.415 0 .725.093.93.279.205.187.307.432.307.738 0 .305-.101.554-.303.747-.201.192-.513.289-.934.289h-5.644v3.82h6.34c.427 0 .75.099.966.298.217.198.325.462.325.792 0 .317-.108.576-.325.774-.217.199-.539.298-.966.298h-7.394c-.593 0-1.019-.131-1.278-.394-.259-.262-.389-.687-.389-1.273v-10.097c0-.391.058-.71.174-.957.116-.248.297-.428.545-.541s.563-.169.948-.169h7.183c.434 0 .756.096.967.289.21.192.316.444.316.755 0 .318-.105.573-.316.765-.211.193-.533.289-.967.289z" fill="#0089ef"/></g><g><path d="m52.165 65.535 5.231 7.916v-7.989c0-.519.111-.908.334-1.168s.523-.39.902-.39c.391 0 .699.13.925.39s.339.649.339 1.168v10.563c0 1.179-.489 1.768-1.466 1.768-.244 0-.464-.035-.66-.105s-.378-.182-.55-.334c-.171-.152-.33-.331-.476-.536s-.293-.414-.44-.627l-5.103-7.824v7.87c0 .513-.119.901-.357 1.164s-.543.394-.916.394c-.385 0-.693-.133-.925-.398s-.348-.652-.348-1.159v-10.364c0-.439.049-.785.146-1.035.116-.275.309-.499.577-.673.269-.174.559-.261.871-.261.244 0 .454.04.627.119.174.08.327.187.458.321s.266.309.403.522c.139.213.282.436.428.668z" fill="#0089ef"/></g><g><path d="m71.725 66.231h-6.129v3.298h5.644c.415 0 .725.093.93.279.205.187.307.432.307.738 0 .305-.101.554-.303.747-.201.192-.513.289-.934.289h-5.644v3.82h6.34c.427 0 .75.099.966.298.217.198.325.462.325.792 0 .317-.108.576-.325.774-.217.199-.539.298-.966.298h-7.394c-.593 0-1.019-.131-1.278-.394-.259-.262-.389-.687-.389-1.273v-10.097c0-.391.058-.71.174-.957.116-.248.297-.428.545-.541s.563-.169.948-.169h7.183c.434 0 .756.096.967.289.21.192.316.444.316.755 0 .318-.105.573-.316.765-.211.193-.533.289-.967.289z" fill="#0089ef"/></g><g><path d="m83.415 66.231h-5.359v3.436h4.48c.416 0 .725.093.93.28.205.186.307.435.307.747s-.104.559-.312.742-.516.274-.925.274h-4.48v4.425c0 .562-.127.979-.38 1.25-.253.272-.579.408-.976.408-.403 0-.731-.137-.985-.412s-.38-.69-.38-1.246v-10.335c0-.391.058-.71.174-.957.116-.248.298-.428.545-.541.248-.113.563-.169.948-.169h6.413c.434 0 .756.096.967.289.21.192.316.444.316.755 0 .318-.105.573-.316.765-.211.193-.533.289-.967.289z" fill="#0089ef"/></g><g><path d="m86.833 76.135v-10.582c0-.55.125-.962.376-1.237.25-.275.574-.413.971-.413.409 0 .741.136.994.408s.38.686.38 1.242v10.582c0 .556-.127.971-.38 1.246s-.585.412-.994.412c-.391 0-.713-.139-.966-.417s-.381-.691-.381-1.241z" fill="#0089ef"/></g><g><path d="m101.317 66.378h-2.968v9.757c0 .562-.125.979-.375 1.25-.25.272-.574.408-.971.408-.403 0-.731-.137-.985-.412s-.38-.69-.38-1.246v-9.757h-2.968c-.464 0-.809-.102-1.035-.307s-.339-.475-.339-.811c0-.348.117-.623.353-.824.235-.202.576-.302 1.021-.302h8.648c.47 0 .82.104 1.049.311.229.208.343.48.343.815 0 .336-.116.606-.348.811-.233.204-.581.307-1.045.307z" fill="#0089ef"/></g></g></g></g></svg>